<svg xmlns="http://www.w3.org/2000/svg" viewBox="0 0 688.83 662.45"><defs><style>.cls-1{fill:#1c3d43;}.cls-2{fill:#489caa;}.cls-3{fill:#fefefe;}.cls-4{fill:#49d1f2;}</style></defs><title>28314Fichier 1-0</title><g id="Calque_2" data-name="Calque 2"><g id="Calque_1-2" data-name="Calque 1"><path class="cls-1" d="M342.61,376.1c-15.19,24.89-31.11,48.64-39.78,76.21a143.12,143.12,0,0,0-6.7,41.11c-.27,18.31,1.37,36.69-1.05,54.92-5.94,44.8-25.38,81.68-66.14,103.78-49.48,26.82-108.15-.92-119.7-56-9.06-43.19,1.73-81.63,30.49-115,18.42-21.35,42.22-34.47,68.4-43.83,6.56-2.34,13-5,18.81-9,9.39-6.41,10.16-11.75,2.51-20.29-11-12.24-24-22-37.68-31-25.48-16.8-50.37-34.4-71.57-56.5-28.71-29.93-50.82-64-61.24-104.64-8-31-9.61-62.35-1.69-93.72.74-3-.12-3.84-2.56-5.19-15.45-8.53-31.2-10.56-47.77-3.36-4.86,2.11-7.43,0-6.86-5.31.81-7.52,4.69-13.76,9-19.66,17.17-23.32,41-36,68.4-43.47,9.1-2.47,18.48-1.94,27.62-3.68a11.36,11.36,0,0,0,5.76-2.39c18.69-16,39.62-27.81,63.5-34.09,24.92-6.56,49.83-7.2,74.47,1.23,15.92,5.45,29.05,14.62,36.71,30.21,1.75,3.57,4.85,4.3,8.2,4.65,7.61.79,15.26,1.16,22.83,2.22,8.16,1.14,16,3.25,19.12,12.39,2.77,8.12-1.51,17.47-10.41,22.49-13.22,7.45-27.67,11.9-41.84,17-10.71,3.86-21.46,7.58-32,12.21,30.8,49.74,61.43,99.18,93.36,148.26l28.42-46c20.5-33.15,40.94-66.34,61.59-99.39,2-3.17.32-3.5-1.81-4.44-16.25-7.13-33.2-12.36-49.81-18.54-7.45-2.77-15-5.37-21.7-9.79-8.66-5.73-11.71-16.15-7.16-24.36,3.77-6.82,10.29-9.11,17.45-9.9,7.61-.85,15.25-1.4,22.89-2,3.15-.24,5.84-1.06,7.37-4.15,9.76-19.7,27-29.34,47.37-33.73,40.89-8.83,78.36.09,112.71,23.49,6.34,4.32,11.45,11.1,18.24,13.63,6.62,2.45,14.73,1.28,22.08,2.74C633,49.32,659.22,62.67,678.85,87.4c4.58,5.75,8.2,12.07,9.54,19.49.43,2.35,1.06,4.68-.95,6.53s-4.38.72-6.5-.16c-15.77-6.56-31.05-5-46,2.6-2.85,1.46-4,2.83-3.17,6.55a185.08,185.08,0,0,1,4.46,56.85c-3,40.81-17.82,77.18-41.72,110-14.94,20.54-32.62,38.36-52.13,54.76-20.2,17-43.05,30.08-63.53,46.52-6.64,5.34-13.14,10.8-18.68,17.26-3.86,4.5-6.88,9.34-3.94,15.82,1.31,2.89,3.46,4.24,6,5.47,15.67,7.54,32.43,12.62,47.71,21,36.15,19.79,60.14,49.32,69.69,89.6,6.32,26.67,5.94,53.26-7.36,78.14-16,29.84-41.38,45.1-75.13,44.14-28.07-.8-50.79-14.22-69.23-34.88-21.66-24.27-31.24-53.42-34-85.36-1.33-15.17-.41-30.29-.57-45.44C393,469.63,385.4,445,373,421.64,364.49,405.61,353.82,391,342.61,376.1ZM179.08,316.31c.28.26.7.81.81.75.85-.43.15-.88-.08-1.32l-1.57-1.6-.79-1.22a6.38,6.38,0,0,0-.57-1.37c-22.49-32.1-29.22-67.46-21.95-105.73,6.31-33.19,24.26-59.32,49.57-80.77,21.23-18,46.36-28.76,72.32-37.86,14.36-5,29.05-9.25,42.68-16.19,2.75-1.4,5.45-3,7-7.11a347.51,347.51,0,0,1-51.37,6.69l-1,.19-2.82.09a18.22,18.22,0,0,0-2.34-.67c-4.26-.63-8.54-1.1-12.78-1.83-1.91-.33-3.56-1.42-3-3.75s2.52-2.32,4.39-2.15c2.15.19,4.28.66,6.42.71,16.61.44,33.13-.47,49.4-4,3.21-.69,8.83-.65,8.47-4.28-.41-4-5.72-4.54-9.8-4.48-6-.42-12-.69-17.92-1.3-8.25-.85-15.28-3.22-18.88-12.07-2.74-6.73-8.28-11.61-14.59-15.28-23-13.42-48-14.64-73.24-9.73C151.78,19,123.1,38.32,99.73,65.48,78.19,90.51,66.6,119.82,65,153a195.92,195.92,0,0,0,2.31,41.27,147.29,147.29,0,0,0,6.25,25.11c15.49,47.15,45.58,83.77,83.32,114.74,19.48,16,41.13,28.95,61.45,43.79,4.77,3.48,8,8.6,12.83,11.71,6.08,3.91,10.49,9.19,14.33,15,2.54,3.82,4.56,2.73,6.36.14,4.71-6.78,10.41-12.86,14.16-20.33,2.67-5.3,2.8-5.26-2.73-7.23-17.27-6.15-33.88-13.65-49.4-23.52C184.58,335,157,314.34,135.67,286.33,99.46,238.79,97.27,177,130.13,129.39c10.36-15,24.29-25.88,39.43-35.57-3.27,5.1-7.31,9.56-10.71,14.56-23.76,35-32.83,73.41-27.68,115.21,1.63,13.22,4.68,26.18,10.73,38.21.45.89.19,3,2.39,2.25a146.43,146.43,0,0,0,32.36,50.05,1.63,1.63,0,0,0,.63.62Zm327.8,1.79c1.69,1.1,2.14-.61,3-1.34l.75-.79a143.38,143.38,0,0,0,34.78-54.76c1.31,1.17,2.09.55,2.54-.81,2.24-6.78,5.49-13.2,7.15-20.19,4.39-18.47,5-37.13,3.21-56-2.88-30-14.27-56.52-31.85-80.63-2.17-3-4.79-5.65-7.2-8.46a93.92,93.92,0,0,1,14.8,9.52,124.64,124.64,0,0,1,32.06,37.2,118.51,118.51,0,0,1,15.63,57.46,169.66,169.66,0,0,1-1.54,23.16,121.06,121.06,0,0,1-15.31,46.42c-13.34,23.21-31.23,42.49-52,59.16-27.5,22.05-57.22,40.05-91.57,49.41-3,.81-3.81,1.93-2.19,4.84a124.79,124.79,0,0,0,17.19,23.85c2.71,3,4.46,2.6,6.59-.48a105.8,105.8,0,0,1,20.59-21.62C479.58,371,497,359.85,513.94,348c25.83-18.1,47.89-40,67.16-64.81,22-28.33,36.33-60.21,41.79-95.85.39-3.45.86-6.88,1.15-10.34a158.65,158.65,0,0,0-.86-32.81,149.55,149.55,0,0,0-11.9-43.48c-15.56-34.52-40.73-60.07-74.34-76.93-27.16-13.63-56.08-17.92-86-11.33C433.1,16.37,418,24.54,410,42.25c-1.25,2.79-3.68,4.09-6.49,5-8.87,2.8-18.16,1.89-27.18,3.27-2.92.58-5.86,1.07-8.74,1.77-1.4.34-3.33.6-3.42,2.38-.12,2.19,2.05,2.24,3.55,2.76,7.75,2.66,15.85,3.54,23.92,4.38,12.57,1.31,25.18,2.12,37.83,1.1,2.09-.16,4.73-1.51,5.47,1.43s-2.16,3.77-4.34,4.4c-3.81,1.1-7.93.65-11.65,2.24-18.71-1.1-37.35-2.77-55.93-6.25a15.12,15.12,0,0,0,5.53,5.79A96.34,96.34,0,0,0,384,77.21c19,7,38.38,12.62,56.76,21.12,34.63,16,63.56,38.41,81.47,73.1,13.93,27,18,55.48,13.06,85.34-3.57,21.53-12.59,40.69-25.63,58.06-.24.42-.47.85-.71,1.28-.66.69-1.33,1.37-2,2.06l-.38.7.58-.17ZM271.07,401.26l.06-.07-6.26,7.6c-12.94,15.72-27.37,29.44-47.25,36.14a202.08,202.08,0,0,0-26.33,10.52c-33.12,16.63-56.95,41.37-67.23,77.78-3.16,7.09-3.56,14.75-4.23,22.29-2.22,25.09,1.5,48.89,18.17,68.84,16,19.13,37.43,25.68,61.43,22.46,18.13-2.44,33.62-11.59,46.25-24.81,28.09-29.37,38.45-65.09,35.82-104.93-1.06-16.14-2.59-32.31-.12-48.31a150.88,150.88,0,0,1,14.06-44c9.57-19.29,21.43-37.16,33.8-54.7,2-2.85,2.21-5,.45-8.11-4.45-7.8-8.42-15.87-12.68-23.78-1-1.9-1.25-4.35-3.3-5.67-6.43,10.67-12.57,21.14-18.7,31.62-7,11.95-16.68,22.32-21.2,35.74-.09.25-1.12.18-1.72.26ZM566.2,538.34c-5.88-25.06-19-45.83-38-62.88-15.87-14.2-34.83-23-54.67-30.09a108.35,108.35,0,0,1-41.7-26.27c-19.92-20.17-34.26-43.93-46.69-69C371.44,322.4,357.2,295.17,339,270c-16-22.16-31-45.09-44.75-68.81C287.17,189,278.65,177.57,271,165.7c-10.53-16.24-20.9-32.59-31.34-48.9-3.12,1.19-3.39,2.92-2,6.15C264,184.68,290.14,246.53,316.69,308.2c9.15,21.25,18.49,42.38,33.46,60.66C367,389.4,385,409.13,397.2,433.12c.57,1.9,1,3.84,1.73,5.7a159.32,159.32,0,0,1,9,71.67c-1.8,18.23-1.12,36.22,3.33,54,6.64,26.53,19.55,49.26,41.53,66,11.06,8.42,23.41,14.29,37.57,16.16,23.16,3.06,43.05-3,59.2-20.07,11.73-12.42,17.45-27.6,19.61-44.35A114.25,114.25,0,0,0,566.2,538.34ZM445.83,157.11c-6,14.77-11.89,29.12-17.6,43.54q-22.58,57-45.08,114a4.94,4.94,0,0,0,.31,4.61c8.92,17,17.81,34.07,27.35,50.76,1.14,2,2,2.8,4.51,1.83,29-11.41,55-27.21,75.23-51.42,26.5-31.7,38.71-67.65,31.5-109-3.62-20.79-12-39.65-25.89-55.66-8.05-9.24-16.42-8.5-24,1.33-3.44,4.46-5.18,9.53-6.19,15-1.07,5.78-4.22,6.79-8.6,2.93a19,19,0,0,1-3.52-4.17C451.2,166.5,448.71,162.06,445.83,157.11Zm-204,.07c-3.06,6.55-5.75,12.85-10.84,17.55-4.46,4.13-7.94,3-8.91-3a30.83,30.83,0,0,0-10.93-19c-4.23-3.62-8.73-4.13-13.62-1.21-4,2.37-6.65,6-9.23,9.69C166.16,192.47,159.85,227.1,169,264c9.27,37.47,31.64,66,63.79,87.13,12,7.87,24.86,13.91,38,19.6,3.42,1.49,4.77.94,6.53-2.1q14.1-24.34,28.6-48.44c1.78-2.94,1-5.27-.1-7.93q-21.91-53-43.77-106.08C255.32,189.93,248.64,173.73,241.81,157.18ZM375.5,300.54c.63-1.52,1.13-2.7,1.62-3.88,23.79-58.3,47.57-116.61,73-174.25.56-1.27,3.15-2.75.25-4.47s-3.84.34-5,2.18c-13,20-26.25,39.75-38.87,59.95-17.57,28.11-34.63,56.53-52,84.77-1.14,1.85-1.05,2.94.18,4.73C361.55,279.62,368.29,289.81,375.5,300.54ZM18,95a2.64,2.64,0,0,0,.95.23c14.92-2.48,29.21-1,42.36,7,3.14,1.91,3.24-.61,4-2.24C70.27,89.21,75.83,78.8,83,69.35c4.5-5.92,9.16-11.7,13.84-17.66C73.59,49.93,26.81,75.67,18,95Zm574.47-42.2c4.54,5,9.77,9.39,13.2,14.88,6.34,10.14,14,19.66,17.44,31.4,1,3.2,2.55,3.63,5.45,2,11.14-6.16,23.22-7.67,35.72-6.78,2.34.16,4.67.5,7.37.8C653.89,68.44,613.76,51,592.42,52.75Z"/><path class="cls-2" d="M622.89,187.34c-5.46,35.64-19.74,67.52-41.79,95.85C561.83,308,539.77,329.9,513.94,348c-16.92,11.85-34.36,23-50.42,36.05a105.8,105.8,0,0,0-20.59,21.62c-2.13,3.08-3.88,3.43-6.59.48a124.79,124.79,0,0,1-17.19-23.85c-1.62-2.91-.78-4,2.19-4.84,34.35-9.36,64.07-27.36,91.57-49.41,20.78-16.67,38.67-35.95,52-59.16a121.06,121.06,0,0,0,15.31-46.42,169.66,169.66,0,0,0,1.54-23.16,118.51,118.51,0,0,0-15.63-57.46,124.64,124.64,0,0,0-32.06-37.2,93.92,93.92,0,0,0-14.8-9.52c2.41,2.81,5,5.48,7.2,8.46,17.58,24.11,29,50.66,31.85,80.63,1.81,18.86,1.18,37.52-3.21,56-1.66,7-4.91,13.41-7.15,20.19-.45,1.36-1.23,2-2.54.81a138.92,138.92,0,0,0,6.49-36.59c1.2-22.84-.78-45.41-7.9-67.36-12.51-38.57-35.25-66.85-76.2-77.59C451.73,75.45,435.26,73.77,419,71c3.72-1.59,7.84-1.14,11.65-2.24,2.18-.63,5.1-1.35,4.34-4.4s-3.38-1.59-5.47-1.43c-12.65,1-25.26.21-37.83-1.1-8.07-.84-16.17-1.72-23.92-4.38-1.5-.52-3.67-.57-3.55-2.76.09-1.78,2-2,3.42-2.38,2.88-.7,5.82-1.19,8.74-1.77,8.76,1.16,17.5.74,26.26-.17,6-.62,10.12-3.47,13.27-8.51,1.88-3,2.51-7.2,5.86-8.85,5.48-2.7,10.18-6.66,15.9-9A99,99,0,0,1,492,18.41c47.89,8.14,83.22,34.77,107.81,75.92,13.41,22.44,19.78,47.26,21.83,73.33C622.14,174.22,621.18,180.87,622.89,187.34ZM451.84,64.9c6.17.49,12.72-5.3,13.25-11.7A13,13,0,0,0,453,39.3c-6.42-.46-12.41,5.11-12.9,12A12.74,12.74,0,0,0,451.84,64.9Z"/><path class="cls-2" d="M312,50.43c4.08-.06,9.39.44,9.8,4.48.36,3.63-5.26,3.59-8.47,4.28-16.27,3.51-32.79,4.42-49.4,4-2.14-.05-4.27-.52-6.42-.71-1.87-.17-3.87-.22-4.39,2.15s1.13,3.42,3,3.75c4.24.73,8.52,1.2,12.78,1.83a17.63,17.63,0,0,1,2.33.67c-14.46,2.76-29.17,4-43.57,7.33-28.16,6.62-51.22,20.44-66.9,45.26-22.07,34.91-26.62,73.3-22.24,113.44,1,9.26,3.77,18.11,5.7,27.16-2.2.79-1.94-1.36-2.39-2.25-6.05-12-9.1-25-10.73-38.21-5.15-41.8,3.92-80.24,27.68-115.21,3.4-5,7.44-9.46,10.71-14.56-15.14,9.69-29.07,20.56-39.43,35.57C97.27,177,99.46,238.79,135.67,286.33c21.33,28,48.91,48.62,78.25,67.26,15.52,9.87,32.13,17.37,49.4,23.52,5.53,2,5.4,1.93,2.73,7.23-3.75,7.47-9.45,13.55-14.16,20.33-1.8,2.59-3.82,3.68-6.36-.14-3.84-5.77-8.25-11-14.33-15-4.83-3.11-8.06-8.23-12.83-11.71-20.32-14.84-42-27.81-61.45-43.79-37.74-31-67.83-67.59-83.32-114.74a147.29,147.29,0,0,1-6.25-25.11c1.84-3.95-.21-7.82-.25-11.73-.24-21.88,2.75-43.23,10.71-63.71a168.08,168.08,0,0,1,21.51-39A156.86,156.86,0,0,1,155,32.52c22.6-11.6,46.69-17.32,72.25-14.44,18.73,2.11,35.85,7.61,46.19,25.31,1.51,2.58,3.29,5,6.54,5.78C290.58,51.89,301.28,51.58,312,50.43Zm-63.82,2A13,13,0,0,0,235.9,39.34c-6.23-.18-12.48,6.23-12.59,12.91a12.45,12.45,0,1,0,24.9.21Z"/><path class="cls-2" d="M272.09,400.16c.6-.08,1.63,0,1.72-.26,4.52-13.42,14.2-23.79,21.2-35.74,6.13-10.48,12.27-21,18.7-31.62,2.05,1.32,2.28,3.77,3.3,5.67,4.26,7.91,8.23,16,12.68,23.78,1.76,3.1,1.56,5.26-.45,8.11-12.37,17.54-24.23,35.41-33.8,54.7a150.88,150.88,0,0,0-14.06,44c-2.47,16-.94,32.17.12,48.31,2.63,39.84-7.73,75.56-35.82,104.93-12.63,13.22-28.12,22.37-46.25,24.81-24,3.22-45.45-3.33-61.43-22.46-16.67-20-20.39-43.75-18.17-68.84.67-7.54,1.07-15.2,4.23-22.29l.64,1.07a1.89,1.89,0,0,0,.27-.38c4.85-13.69,13.13-25.21,22.4-36.21,14.19-16.82,31.16-29.8,51.52-38.2,8.13-3.36,16.43-6.3,24.63-9.5a81,81,0,0,0,25.07-15.52c2.65-2.39,3.89-5.66,6.36-8.18,7.09-7.22,11.88-16,16.18-25.12l-.06.07C271.79,401.25,272,400.74,272.09,400.16Zm-131,204,1.07,1.08-.06-.09c3.41,8.83,8.24,16.65,16.18,22.13C180.56,642.7,214,637,230.14,615.16l-.1.09c1.92-.42,2.5-2,3.11-3.57,4.89-2.78,7.6-7.65,11-11.82,21.94-27.2,29.79-58.12,21.75-92.14-7.57-32-32.2-45.21-63.51-35.32A82.16,82.16,0,0,0,174,488.3c-6.9,5.81-13.74,11.55-19.05,18.75-21.59,29.24-29.9,60.58-14.11,95.41-1,.8-.25,1.29.32,1.82Z"/><path class="cls-3" d="M397.2,433.12c-12.16-24-30.24-43.72-47.05-64.26-15-18.28-24.31-39.41-33.46-60.66C290.14,246.53,264,184.68,237.61,123c-1.38-3.23-1.11-5,2-6.15,10.44,16.31,20.81,32.66,31.34,48.9,7.69,11.87,16.21,23.26,23.3,35.48C308,224.9,323,247.83,339,270c18.19,25.18,32.43,52.41,46.13,80.08,12.43,25.1,26.77,48.86,46.69,69a108.35,108.35,0,0,0,41.7,26.27c19.84,7.06,38.8,15.89,54.67,30.09,19,17.05,32.12,37.82,38,62.88-.14.08-.29.23-.43.23a.48.48,0,0,1-.4-.23c-1.88-4.78-3.31-9.8-5.7-14.31C542.1,490.82,516,467.2,480.11,455.35c-20.46-6.76-38.86-16.34-52.94-33.08-9.86-11.73-19.66-23.5-27.74-36.58a54.16,54.16,0,0,0-7.71-9.15,11.38,11.38,0,0,0,1.28,5.93c4.18,8.88,8.27,17.8,12.46,26.68a36.92,36.92,0,0,1,3.45,14C409.34,431.14,405,434.75,397.2,433.12ZM343.49,329.36c7.28-.08,13.78-6.93,13.6-14.33-.17-6.78-7.58-13.78-14.54-13.74-7.32,0-13.63,6.85-13.38,14.44A14.45,14.45,0,0,0,343.49,329.36Z"/><path class="cls-2" d="M397.2,433.12c7.8,1.63,12.14-2,11.71-10a36.92,36.92,0,0,0-3.45-14c-4.19-8.88-8.28-17.8-12.46-26.68a11.38,11.38,0,0,1-1.28-5.93,54.16,54.16,0,0,1,7.71,9.15c8.08,13.08,17.88,24.85,27.74,36.58,14.08,16.74,32.48,26.32,52.94,33.08,35.89,11.85,62,35.47,79.56,68.68,2.39,4.51,3.82,9.53,5.7,14.31a.48.48,0,0,0,.4.23c.14,0,.29-.15.43-.23a114.25,114.25,0,0,1,2.94,43.91C567,599,561.26,614.18,549.53,626.6c-16.15,17.09-36,23.13-59.2,20.07-14.16-1.87-26.51-7.74-37.57-16.16-22-16.75-34.89-39.48-41.53-66-4.45-17.79-5.13-35.78-3.33-54a159.32,159.32,0,0,0-9-71.67C398.24,437,397.77,435,397.2,433.12Zm55.86,177.94c-.78.62-.29,1.13.16,1.61,7.26,7.67,15.31,14.23,25.11,18.49,22,9.58,46.67,4.88,61.18-12.21,4.36-5.13,8.87-10.47,9.7-17.66,8-17.55,8.71-35.66,4-54.12-3.66-14.52-10.41-27.34-19.56-39.37-14.83-19.51-32.43-33.63-57.38-37.77-21-3.48-38.5,7.85-47.2,22.68-10.18,17.34-10.68,36-8,55.14,3.2,22.73,13.26,42.19,28.89,58.89C451.2,608,453.12,608.87,453.06,611.06Z"/><path class="cls-3" d="M144.29,264.05c-1.93-9.05-4.69-17.9-5.7-27.16-4.38-40.14.17-78.53,22.24-113.44,15.68-24.82,38.74-38.64,66.9-45.26,14.4-3.38,29.11-4.57,43.57-7.33l2.83-.09,1-.19a347.51,347.51,0,0,0,51.37-6.69C325,68,322.25,69.6,319.5,71c-13.63,6.94-28.32,11.15-42.68,16.19-26,9.1-51.09,19.86-72.32,37.86-25.31,21.45-43.26,47.58-49.57,80.77-7.27,38.27-.54,73.63,21.95,105.73a6.38,6.38,0,0,1,.57,1.37l-.8,1.18A146.43,146.43,0,0,1,144.29,264.05Z"/><path class="cls-3" d="M419,71c16.3,2.82,32.77,4.5,48.86,8.72,40.95,10.74,63.69,39,76.2,77.59,7.12,22,9.1,44.52,7.9,67.36a138.92,138.92,0,0,1-6.49,36.59A143.38,143.38,0,0,1,510.65,316l-.95-1.15c13-17.36,22.06-36.52,25.63-58.05,5-29.86.87-58.35-13.06-85.34-17.91-34.69-46.84-57.08-81.47-73.1C422.42,89.83,403,84.16,384,77.21a96.34,96.34,0,0,1-15.48-6.72A15.12,15.12,0,0,1,363,64.7C381.61,68.18,400.25,69.85,419,71Z"/><path class="cls-3" d="M375.5,300.54c-7.21-10.73-13.95-20.92-20.89-31-1.23-1.79-1.32-2.88-.18-4.73,17.37-28.24,34.43-56.66,52-84.77,12.62-20.2,25.89-40,38.87-59.95,1.2-1.84,2.21-3.87,5-2.18s.31,3.2-.25,4.47c-25.4,57.64-49.18,116-73,174.25C376.63,297.84,376.13,299,375.5,300.54Z"/><path class="cls-3" d="M312,50.43c-10.75,1.15-21.45,1.46-32.07-1.26-3.25-.83-5-3.2-6.54-5.78-10.34-17.7-27.46-23.2-46.19-25.31C201.67,15.2,177.58,20.92,155,32.52A156.86,156.86,0,0,0,99.32,79.77a168.08,168.08,0,0,0-21.51,39c-8,20.48-11,41.83-10.71,63.71,0,3.91,2.09,7.78.25,11.73A195.92,195.92,0,0,1,65,153c1.56-33.13,13.15-62.44,34.69-87.47C123.1,38.32,151.78,19,187.4,12.05c25.23-4.91,50.2-3.69,73.24,9.73,6.31,3.67,11.85,8.55,14.59,15.28,3.6,8.85,10.63,11.22,18.88,12.07C300.07,49.74,306.06,50,312,50.43Z"/><path class="cls-3" d="M622.89,187.34c-1.71-6.47-.75-13.12-1.27-19.68-2-26.07-8.42-50.89-21.83-73.33C575.2,53.18,539.87,26.55,492,18.41A99,99,0,0,0,437.63,24c-5.72,2.31-10.42,6.27-15.9,9-3.35,1.65-4,5.84-5.86,8.85-3.15,5-7.3,7.89-13.27,8.51-8.76.91-17.5,1.33-26.26.17,9-1.38,18.31-.47,27.18-3.27,2.81-.88,5.24-2.18,6.49-5,8-17.71,23.09-25.88,40.89-29.8,30-6.59,58.88-2.3,86,11.33,33.61,16.86,58.78,42.41,74.34,76.93a149.55,149.55,0,0,1,11.9,43.48A158.65,158.65,0,0,1,624,177C623.75,180.46,623.28,183.89,622.89,187.34Z"/><path class="cls-2" d="M18,95c8.85-19.28,55.63-45,78.89-43.26-4.68,6-9.34,11.74-13.84,17.66C75.83,78.8,70.27,89.21,65.26,99.94c-.76,1.63-.86,4.15-4,2.24-13.15-8-27.44-9.48-42.36-7A2.54,2.54,0,0,1,18,95Z"/><path class="cls-2" d="M592.42,52.75c21.34-1.8,61.47,15.69,79.18,42.32-2.7-.3-5-.64-7.37-.8-12.5-.89-24.58.62-35.72,6.78-2.9,1.61-4.5,1.18-5.45-2-3.48-11.74-11.1-21.26-17.44-31.4C602.19,62.14,597,57.77,592.42,52.75Z"/><path class="cls-3" d="M271.13,401.19c-4.3,9.08-9.09,17.9-16.18,25.12-2.47,2.52-3.71,5.79-6.36,8.18A81,81,0,0,1,223.52,450c-8.2,3.2-16.5,6.14-24.63,9.5-20.36,8.4-37.33,21.38-51.52,38.2-9.27,11-17.55,22.52-22.4,36.21a1.89,1.89,0,0,1-.27.38l-.64-1.07c10.28-36.41,34.11-61.15,67.23-77.78a202.08,202.08,0,0,1,26.33-10.52c19.88-6.7,34.31-20.42,47.25-36.14Z"/><path class="cls-3" d="M509.9,316.76c-.88.73-1.33,2.44-3,1.34l.12.06c.66-.68,1.33-1.36,2-2.05Z"/><path class="cls-3" d="M178.24,314.14l1.57,1.6a3.06,3.06,0,0,0-.73.57l-1.8-1.59Z"/><path class="cls-4" d="M275.16,70.58l-1,.19Z"/><path class="cls-3" d="M509,316.11c.24-.43.47-.86.71-1.28l.95,1.14-.75.79Z"/><path class="cls-3" d="M179.81,315.74c.23.44.93.89.08,1.32-.11.06-.53-.49-.81-.75A3.06,3.06,0,0,1,179.81,315.74Z"/><path class="cls-3" d="M506.88,318.1l.33.6-.58.17c.13-.23.25-.47.37-.71Z"/><path class="cls-3" d="M177.45,312.92l.79,1.22-1,.58a1.63,1.63,0,0,1-.63-.62C176.92,313.71,177.19,313.32,177.45,312.92Z"/><path class="cls-3" d="M272.09,400.16c-.11.58-.3,1.09-1,1.1Z"/><path class="cls-1" d="M451.84,64.9a12.74,12.74,0,0,1-11.73-13.62c.49-6.87,6.48-12.44,12.9-12a13,13,0,0,1,12.08,13.9C464.56,59.6,458,65.39,451.84,64.9Zm2.24-17.56c-.09-1.49-.89-2.89-2.53-2.91a3.12,3.12,0,0,0-3.28,3.47c0,1.91,1.47,2.36,3.08,2.34C453.12,50.21,454.07,49.33,454.08,47.34Z"/><path class="cls-1" d="M248.21,52.46a12.45,12.45,0,1,1-24.9-.21c.11-6.68,6.36-13.09,12.59-12.91A13,13,0,0,1,248.21,52.46Zm-11.88-1.93c3,.12,4-.92,4-2.62a3.17,3.17,0,0,0-2.91-3.42,2.83,2.83,0,0,0-3.11,3.06A2.88,2.88,0,0,0,236.33,50.53Z"/><path class="cls-1" d="M140.87,602.46c-15.79-34.83-7.48-66.17,14.11-95.41,5.31-7.2,12.15-12.94,19.05-18.75a82.16,82.16,0,0,1,28.32-15.9c31.31-9.89,55.94,3.34,63.51,35.32,8,34,.19,64.94-21.75,92.14-3.36,4.17-6.07,9-11,11.82-.79,1.41-3.54,1.1-3.11,3.57l.1-.09c-1.43-1.1-2,.51-2.84,1A106.73,106.73,0,0,1,211,624.7a60.76,60.76,0,0,1-32.14,4c-15.66-2.4-27.4-11.09-36.72-23.49l.06.09c-.18-.54-.23-1.2-1.07-1.08l.07.09C141.08,603.67,141,603.07,140.87,602.46Zm5.24-32.24c0,18.26,6.69,33.28,18.44,41.63,15.34,10.91,36.78,10,53.73-3.52,28.73-22.92,41.11-53.05,36.64-89.61-1.41-11.61-5.66-22.35-15.9-29.36-11.81-8.09-24.44-7.13-37.12-2.49C170.67,498.3,146,535.22,146.11,570.22Z"/><path class="cls-3" d="M142.13,605.18c9.32,12.4,21.06,21.09,36.72,23.49a60.76,60.76,0,0,0,32.14-4,106.73,106.73,0,0,0,16.31-8.53c.82-.5,1.41-2.11,2.84-1C214,637,180.56,642.7,158.31,627.31,150.37,621.83,145.54,614,142.13,605.18Z"/><path class="cls-3" d="M230,615.25c-.43-2.47,2.32-2.16,3.11-3.57C232.54,613.24,232,614.83,230,615.25Z"/><path class="cls-3" d="M140.87,602.46c.11.61.21,1.21.32,1.82C140.62,603.75,139.9,603.26,140.87,602.46Z"/><path class="cls-3" d="M141.12,604.19c.84-.12.89.54,1.07,1.08Z"/><path class="cls-1" d="M343.49,329.36a14.45,14.45,0,0,1-14.32-13.63c-.25-7.59,6.06-14.4,13.38-14.44,7,0,14.37,7,14.54,13.74C357.27,322.43,350.77,329.28,343.49,329.36Zm-.37-21.91c-3.78,0-6.87,3.3-7,7.54-.12,4.4,2.55,7.29,6.83,7.39s7.17-2.7,7.31-7S347.08,307.49,343.12,307.45Z"/><path class="cls-1" d="M453.06,611.06c.06-2.19-1.86-3-3.05-4.32-15.63-16.7-25.69-36.16-28.89-58.89-2.69-19.1-2.19-37.8,8-55.14,8.7-14.83,26.19-26.16,47.2-22.68,24.95,4.14,42.55,18.26,57.38,37.77,9.15,12,15.9,24.85,19.56,39.37,4.67,18.46,3.93,36.57-4,54.12-4.08,7.18-9.28,13.48-16.23,17.93-21.57,13.79-43.47,12.47-65.53,1C462.36,617.56,458,613.94,453.06,611.06Zm-20-77.49c-1.19,20.52,8.78,44.72,19.78,58.58,10.6,13.36,23.25,23.12,40.63,26.29,23.32,4.24,47.82-12.14,49.65-42.43,1.32-21.82-5.85-41.11-18.39-58.61-10.29-14.35-23-25.84-40-31.54-24-8-43.28,2.64-49.56,27A71.39,71.39,0,0,0,433,533.57Z"/><path class="cls-3" d="M453.06,611.06c4.9,2.88,9.3,6.5,14.39,9.15,22.06,11.48,44,12.8,65.53-1,6.95-4.45,12.15-10.75,16.23-17.93-.83,7.19-5.34,12.53-9.7,17.66C525,636,500.34,640.74,478.33,631.16c-9.8-4.26-17.85-10.82-25.11-18.49C452.77,612.19,452.28,611.68,453.06,611.06Z"/><path class="cls-3" d="M454.08,47.34c0,2-1,2.87-2.73,2.9-1.61,0-3.05-.43-3.08-2.34a3.12,3.12,0,0,1,3.28-3.47C453.19,44.45,454,45.85,454.08,47.34Z"/><path class="cls-3" d="M236.33,50.53a2.88,2.88,0,0,1-2-3,2.83,2.83,0,0,1,3.11-3.06,3.17,3.17,0,0,1,2.91,3.42C240.29,49.61,239.33,50.65,236.33,50.53Z"/><path class="cls-3" d="M343.12,307.45c4,0,7.28,3.72,7.14,7.93s-3.06,7.1-7.31,7-6.95-3-6.83-7.39C336.25,310.75,339.34,307.41,343.12,307.45Z"/></g></g></svg>